<?xml version="1.0"?>

<svg version="1.1" id="Layer_1" xmlns="http://www.w3.org/2000/svg" xmlns:xlink="http://www.w3.org/1999/xlink" x="0px" y="0px" viewBox="0 0 392 391.3" style="enable-background:new 0 0 392 391.3;" xml:space="preserve">

<g>
&#x9;<path d="M369.8,138.5c14.3,53.6,4,108.3-24.6,151.2l46.8,46.8l-54.4,54.8l-47.2-47.2c-16.3,10.3-34.1,18.7-54,24.2&#xA;&#x9;&#x9;c-100.4,27-203.6-32.5-230.2-132.1C-20.3,136.1,39.3,33.3,139.7,6.4C239.7-20.2,342.8,38.9,369.8,138.5z"></path>
</g>
<path fill="#FFFFFF" d="M199.2,226.5l78.7-102.2l-74.8-67.4L91.3,124.3l80.2,102.3l-23,29.7l-38.2,47.6h75.2h75.2l-38.2-47.7&#xA;&#x9;L199.2,226.5z M135.8,123.3l57.8-34.8l-14.1,112.6l-50.8-64.8H183l1.6-13L135.8,123.3L135.8,123.3z M240.8,136.3l-49.5,64.3&#xA;&#x9;l14-111.9l38.4,34.6h-38.2l-1.6,13H240.8z M185.5,281.9h-29.1l9.4-11.7l0.1-0.1l0.1-0.1l19.5-25.1l19.5,25.1l0.1,0.1l0.1,0.1&#xA;&#x9;l9.4,11.7H185.5z"></path>
</svg>